<?xml version="1.0" encoding="UTF-8" standalone="no"?>
<svg
   width="128px"
   height="128px"
   viewBox="0 0 128 128"
   id="Layer_1"
   style="enable-background:new 0 0 128 128;"
   version="1.1"
   xml:space="preserve"
   sodipodi:docname="about.svg"
   inkscape:version="1.2 (dc2aedaf03, 2022-05-15)"
   xmlns:inkscape="http://www.inkscape.org/namespaces/inkscape"
   xmlns:sodipodi="http://sodipodi.sourceforge.net/DTD/sodipodi-0.dtd"
   xmlns="http://www.w3.org/2000/svg"
   xmlns:svg="http://www.w3.org/2000/svg"><defs
     id="defs13" /><sodipodi:namedview
     id="namedview11"
     pagecolor="#ffffff"
     bordercolor="#000000"
     borderopacity="0.25"
     inkscape:showpageshadow="2"
     inkscape:pageopacity="0.0"
     inkscape:pagecheckerboard="0"
     inkscape:deskcolor="#d1d1d1"
     showgrid="false"
     inkscape:zoom="6.78125"
     inkscape:cx="64"
     inkscape:cy="63.926267"
     inkscape:window-width="1888"
     inkscape:window-height="1057"
     inkscape:window-x="-8"
     inkscape:window-y="-8"
     inkscape:window-maximized="1"
     inkscape:current-layer="Layer_1" /><g
     id="g8"><path
       d="M64,1C29.3,1,1,29.3,1,64s28.3,63,63,63s63-28.3,63-63S98.7,1,64,1z M64,119C33.7,119,9,94.3,9,64S33.7,9,64,9   s55,24.7,55,55S94.3,119,64,119z"
       id="path2" /><rect
       height="40"
       width="8"
       x="60"
       y="54.5"
       id="rect4" /><rect
       height="8"
       width="8"
       x="60"
       y="35.5"
       id="rect6" /></g><path
     style="fill:#ffffff;stroke-width:0.147465"
     d="M 61.050691,126.86629 C 52.010502,126.44546 42.172173,123.71739 34.40252,119.47702 24.611286,114.13336 16.715004,106.7731 10.797807,97.474654 0.77431427,81.723464 -1.6399215,61.997391 4.2824762,44.239631 8.7738909,30.772542 17.778336,19.129755 29.773666,11.279409 46.908653,0.06541536 68.505764,-2.0309623 87.520737,5.6740451 100.54501,10.951575 111.5383,20.568597 118.63987,32.897317 c 3.54038,6.146281 6.14158,13.368954 7.35106,20.411439 0.66375,3.864836 0.8755,6.450642 0.8755,10.691244 0,9.346107 -1.83596,17.758531 -5.73953,26.298638 -4.78081,10.459332 -13.02294,19.972362 -22.873944,26.401022 -11.042824,7.20644 -24.105825,10.77629 -37.202265,10.16663 z m 9.880185,-8.21857 c 10.267288,-1.39889 19.394453,-5.26963 27.39604,-11.61838 2.413384,-1.91487 6.793354,-6.29637 8.714444,-8.717499 6.26074,-7.890305 10.02312,-16.667699 11.54708,-26.938569 0.30316,-2.043202 0.33915,-2.8255 0.33915,-7.373272 0,-4.547772 -0.036,-5.33007 -0.33915,-7.373272 C 117.0613,46.334429 113.31742,37.603443 107.03063,29.673084 105.29112,27.47882 100.68324,22.830257 98.609652,21.177756 90.460862,14.68377 81.431441,10.821277 70.930876,9.3376773 69.460305,9.1299038 68.058775,9.0767513 64,9.0748268 59.444409,9.0726665 58.673444,9.1078763 56.626728,9.4115614 46.343367,10.937374 37.58806,14.690291 29.688159,20.958636 27.275837,22.872745 22.88504,27.259595 20.998435,29.640553 14.599392,37.71635 10.813931,46.620557 9.3376773,57.069124 c -0.3767257,2.666375 -0.3754261,11.211112 0.00211,13.861752 1.7651177,12.392756 6.8349217,22.833415 15.2791867,31.465664 9.156111,9.35995 20.532872,14.89906 33.651635,16.38428 2.559407,0.28976 10.141702,0.21005 12.660268,-0.1331 z"
     id="path134" /><path
     style="fill:#ffffff;stroke-width:0.147465"
     d="M 60.018433,39.447005 V 35.539171 H 64 67.981567 v 3.907834 3.907834 H 64 60.018433 Z"
     id="path136" /><path
     style="fill:#ffffff;stroke-width:0.147465"
     d="M 60.018433,74.470046 V 54.562212 H 64 67.981567 V 74.470046 94.37788 H 64 60.018433 Z"
     id="path138" /></svg>
