<?xml version="1.0" encoding="UTF-8" standalone="no"?>
<!-- Generator: Adobe Illustrator 19.0.0, SVG Export Plug-In . SVG Version: 6.00 Build 0)  -->

<svg
   version="1.1"
   id="Capa_1"
   x="0px"
   y="0px"
   viewBox="0 0 57 57"
   style="enable-background:new 0 0 57 57;"
   xml:space="preserve"
   sodipodi:docname="bluetooth.svg"
   inkscape:version="1.2 (dc2aedaf03, 2022-05-15)"
   xmlns:inkscape="http://www.inkscape.org/namespaces/inkscape"
   xmlns:sodipodi="http://sodipodi.sourceforge.net/DTD/sodipodi-0.dtd"
   xmlns="http://www.w3.org/2000/svg"
   xmlns:svg="http://www.w3.org/2000/svg"><defs
   id="defs41" /><sodipodi:namedview
   id="namedview39"
   pagecolor="#ffffff"
   bordercolor="#000000"
   borderopacity="0.25"
   inkscape:showpageshadow="2"
   inkscape:pageopacity="0.0"
   inkscape:pagecheckerboard="0"
   inkscape:deskcolor="#d1d1d1"
   showgrid="false"
   inkscape:zoom="15.22807"
   inkscape:cx="28.5"
   inkscape:cy="28.467166"
   inkscape:window-width="1888"
   inkscape:window-height="1057"
   inkscape:window-x="-8"
   inkscape:window-y="-8"
   inkscape:window-maximized="1"
   inkscape:current-layer="Capa_1" />
<g
   id="g6">
	<path
   d="M27.5,8.586l0.035,17.176l-8.292-7.491l-1.341,1.484l9.155,8.271l-9.223,8.241l1.333,1.492l8.37-7.479L27.5,48.63   l10.357-11.652l-8.244-8.688l8.259-9.332L27.5,8.586z M35.127,19.042l-5.603,6.331L29.5,13.414L35.127,19.042z M29.5,43.37   l0.024-12.269l5.618,5.921L29.5,43.37z"
   id="path2" />
	<path
   d="M28.5,0c-9.925,0-18,8.075-18,18v21c0,9.925,8.075,18,18,18s18-8.075,18-18V18C46.5,8.075,38.425,0,28.5,0z M44.5,39   c0,8.822-7.178,16-16,16s-16-7.178-16-16V18c0-8.822,7.178-16,16-16s16,7.178,16,16V39z"
   id="path4" />
</g>
<g
   id="g8">
</g>
<g
   id="g10">
</g>
<g
   id="g12">
</g>
<g
   id="g14">
</g>
<g
   id="g16">
</g>
<g
   id="g18">
</g>
<g
   id="g20">
</g>
<g
   id="g22">
</g>
<g
   id="g24">
</g>
<g
   id="g26">
</g>
<g
   id="g28">
</g>
<g
   id="g30">
</g>
<g
   id="g32">
</g>
<g
   id="g34">
</g>
<g
   id="g36">
</g>
<path
   style="fill:#ffffff;stroke-width:0.0656682"
   d="m 27.482143,56.929075 c -3.688368,-0.19967 -7.311926,-1.601635 -10.277074,-3.976229 -0.716791,-0.57403 -2.076972,-1.934212 -2.651003,-2.651003 -2.152973,-2.688411 -3.523061,-5.974245 -3.929251,-9.423387 -0.123972,-1.0527 -0.123972,-23.704212 0,-24.756912 0.246259,-2.0911 0.851384,-4.159307 1.748426,-5.975807 0.768375,-1.5559486 1.475983,-2.6274482 2.605288,-3.9450698 2.124728,-2.4790376 5.307524,-4.5171344 8.504991,-5.44615367 2.777485,-0.80699407 5.69239,-0.92542974 8.628231,-0.35057408 3.64905,0.71450615 7.424934,2.91644055 9.874972,5.75866075 2.469879,2.8652378 3.948132,6.2199078 4.388463,9.9589438 0.123971,1.0527 0.123971,23.704212 0,24.756912 -0.406048,3.447928 -1.768749,6.717454 -3.927562,9.423387 -0.564007,0.706948 -1.925707,2.067486 -2.652693,2.650429 -2.88335,2.312055 -6.620897,3.786802 -10.01301,3.950897 -0.398058,0.01926 -0.871495,0.04416 -1.052082,0.05534 -0.180588,0.01118 -0.742051,-0.0021 -1.247696,-0.02944 z m 3.28341,-2.056083 c 3.488522,-0.520505 6.598427,-2.079111 9.059921,-4.540605 2.581721,-2.581721 4.171619,-5.876282 4.599019,-9.530013 0.14749,-1.260853 0.14749,-23.343895 0,-24.604748 -0.427642,-3.6558 -2.015836,-6.94683 -4.599019,-9.5300129 -2.512931,-2.5129315 -5.673056,-4.0698849 -9.28976,-4.5769473 -0.930826,-0.130502 -3.388916,-0.1106454 -4.320775,0.034904 -2.385715,0.3726294 -4.583756,1.2052565 -6.486585,2.457145 -3.541034,2.3296782 -6.05267,6.0072332 -6.9222,10.1355342 -0.337408,1.601925 -0.335109,1.497806 -0.313017,14.17576 0.02274,13.047267 -0.0073,12.114558 0.448658,13.947466 1.445449,5.811001 5.95792,10.305879 11.77845,11.732529 0.681221,0.166972 1.585355,0.317024 2.499225,0.414775 0.531656,0.05687 2.909226,-0.02077 3.546083,-0.115787 z"
   id="path112" /><path
   style="fill:#ffffff;stroke-width:0.0656682"
   d="m 27.554198,39.408444 c 0.03534,-6.884602 0.02827,-9.146919 -0.0285,-9.12788 -0.04152,0.01392 -1.939535,1.690308 -4.217821,3.725303 -2.278286,2.034996 -4.149233,3.689835 -4.157659,3.677419 -0.0084,-0.01241 -0.287003,-0.324865 -0.619059,-0.694336 -0.332056,-0.36947 -0.601846,-0.694528 -0.599534,-0.72235 0.0023,-0.02782 2.056085,-1.880248 4.56394,-4.116502 2.507855,-2.236254 4.55781,-4.097947 4.555456,-4.137097 -0.0024,-0.03915 -2.039942,-1.903324 -4.527972,-4.142609 -2.488029,-2.239286 -4.5251,-4.090525 -4.526825,-4.113866 -0.0017,-0.02334 0.2795,-0.354129 0.624941,-0.735088 l 0.628076,-0.692651 4.051569,3.657323 c 2.228363,2.011528 4.107343,3.701543 4.175511,3.755588 0.121394,0.09625 0.122982,-0.0785 0.0773,-8.504032 l -0.04664,-8.6022973 5.15446,5.1503063 c 5.056409,5.052334 5.152358,5.152945 5.044031,5.289041 -0.06074,0.0763 -1.898245,2.157275 -4.083354,4.624379 -2.18511,2.467104 -3.981465,4.521748 -3.9919,4.565877 -0.01044,0.04413 1.81468,2.013608 4.055811,4.376621 2.241131,2.363013 4.061009,4.332285 4.044173,4.376159 -0.02315,0.06032 -9.658252,10.946724 -10.129835,11.445382 -0.08044,0.08506 -0.08674,-1.150835 -0.04617,-9.05469 z m 4.915109,0.68677 2.73527,-3.08163 -0.452265,-0.464453 c -0.248746,-0.255449 -1.523319,-1.594768 -2.832384,-2.976262 -1.309066,-1.381495 -2.392446,-2.511809 -2.407512,-2.511809 -0.01507,0 -0.02739,2.784332 -0.02739,6.187404 0,6.076025 0.0022,6.185072 0.124506,6.057891 0.06848,-0.07123 1.355379,-1.516245 2.859778,-3.211141 z M 32.309038,22.290151 c 1.520821,-1.717893 2.778507,-3.158489 2.794856,-3.201324 0.01635,-0.04284 -1.241209,-1.348433 -2.794572,-2.901329 l -2.824299,-2.823446 v 6.024771 c 0,3.313624 0.01325,6.024771 0.02944,6.024771 0.01619,0 1.273751,-1.405549 2.794573,-3.123443 z"
   id="path114" /></svg>
