<?xml version="1.0" encoding="UTF-8" standalone="no"?>
<svg
   width="32px"
   height="32px"
   viewBox="0 0 32 32"
   enable-background="new 0 0 32 32"
   id="Stock_cut"
   version="1.1"
   xml:space="preserve"
   sodipodi:docname="cancelbin.svg"
   inkscape:version="1.2 (dc2aedaf03, 2022-05-15)"
   xmlns:inkscape="http://www.inkscape.org/namespaces/inkscape"
   xmlns:sodipodi="http://sodipodi.sourceforge.net/DTD/sodipodi-0.dtd"
   xmlns="http://www.w3.org/2000/svg"
   xmlns:svg="http://www.w3.org/2000/svg"><defs
     id="defs19" /><sodipodi:namedview
     id="namedview17"
     pagecolor="#ffffff"
     bordercolor="#000000"
     borderopacity="0.25"
     inkscape:showpageshadow="2"
     inkscape:pageopacity="0.0"
     inkscape:pagecheckerboard="true"
     inkscape:deskcolor="#d1d1d1"
     showgrid="false"
     inkscape:zoom="27.125"
     inkscape:cx="14.525346"
     inkscape:cy="16.018433"
     inkscape:window-width="1449"
     inkscape:window-height="1041"
     inkscape:window-x="2102"
     inkscape:window-y="0"
     inkscape:window-maximized="0"
     inkscape:current-layer="Stock_cut"><inkscape:grid
       type="xygrid"
       id="grid225" /></sodipodi:namedview><desc
     id="desc2" /><ellipse
     style="fill:#ffffff;stroke:#241c1c;stroke-width:1.137;stroke-dasharray:none;fill-opacity:0"
     id="path901"
     cx="16.626728"
     cy="16.387096"
     rx="8.8479261"
     ry="8.5714283" /><path
     style="fill:#ffffff;stroke:#241c1c;stroke-width:1.137;stroke-dasharray:none"
     d="M 23.373272,10.83871 C 9.6221198,21.788018 9.6221198,21.788018 9.6221198,21.788018 v 0 0"
     id="path957" /><path
     style="fill:#ffffff;stroke:#241c1c;stroke-width:0.041917;stroke-dasharray:none"
     d="M 15.447005,25.437233 C 13.741881,25.210268 12.195921,24.584057 10.858613,23.578646 10.4305,23.256783 9.6860028,22.547094 9.3269897,22.118631 8.6604882,21.323197 8.0630264,20.273836 7.7295649,19.312968 6.8146761,16.676721 7.1776182,13.804719 8.7193231,11.480896 9.1089372,10.893628 9.3392559,10.611197 9.8546998,10.088628 10.641637,9.2908118 11.381589,8.7597369 12.40553,8.257857 13.344296,7.7977255 14.205385,7.52537 15.225806,7.3658262 c 0.603258,-0.09432 2.198587,-0.09432 2.801844,0 1.020422,0.1595438 1.881511,0.4318993 2.820276,0.8920308 1.024352,0.502081 1.768637,1.0360589 2.550947,1.830145 0.515558,0.52332 0.745636,0.80561 1.13526,1.392894 2.560526,3.859498 1.739943,8.963514 -1.916621,11.921364 -0.545733,0.441451 -1.067592,0.769998 -1.769586,1.114077 -0.925019,0.453393 -1.789906,0.729001 -2.78341,0.88697 -0.532275,0.08463 -2.085341,0.104762 -2.617511,0.03393 z m 2.296071,-1.109592 c 0.897172,-0.106152 1.764058,-0.366254 2.625588,-0.787787 2.540083,-1.242823 4.212314,-3.59796 4.51592,-6.36013 0.198002,-1.801395 -0.315081,-3.766577 -1.378842,-5.281173 -0.103273,-0.147042 -0.207402,-0.263171 -0.231397,-0.258065 -0.06063,0.0129 -12.767433,10.134288 -12.767433,10.169681 0,0.01577 0.170047,0.181745 0.377881,0.368838 1.920679,1.728998 4.246505,2.457658 6.858283,2.148636 z m -1.53197,-8.479797 c 3.48297,-2.771963 6.34073,-5.046592 6.350578,-5.054729 0.02045,-0.01689 -0.223417,-0.238597 -0.6262,-0.569301 C 21.031491,9.4815929 19.794431,8.8782165 18.599078,8.5964818 17.942533,8.4417395 17.378177,8.3797153 16.626728,8.3797153 c -1.375214,0 -2.540625,0.2661001 -3.741935,0.8544014 -3.6460073,1.7855093 -5.3961238,5.8223843 -4.1593977,9.5942003 0.2660067,0.811278 0.9642035,2.131924 1.0996276,2.079957 0.029376,-0.01127 2.9031131,-2.288466 6.3860831,-5.06043 z"
     id="path1137" /></svg>
