<?xml version="1.0" encoding="UTF-8" standalone="no"?>
<svg
   width="32px"
   height="32px"
   viewBox="0 0 32 32"
   enable-background="new 0 0 32 32"
   id="Stock_cut"
   version="1.1"
   xml:space="preserve"
   sodipodi:docname="deletebin.svg"
   inkscape:version="1.2 (dc2aedaf03, 2022-05-15)"
   xmlns:inkscape="http://www.inkscape.org/namespaces/inkscape"
   xmlns:sodipodi="http://sodipodi.sourceforge.net/DTD/sodipodi-0.dtd"
   xmlns="http://www.w3.org/2000/svg"
   xmlns:svg="http://www.w3.org/2000/svg"><defs
     id="defs19" /><sodipodi:namedview
     id="namedview17"
     pagecolor="#ffffff"
     bordercolor="#000000"
     borderopacity="0.25"
     inkscape:showpageshadow="2"
     inkscape:pageopacity="0.0"
     inkscape:pagecheckerboard="0"
     inkscape:deskcolor="#d1d1d1"
     showgrid="false"
     inkscape:zoom="27.125"
     inkscape:cx="16.018433"
     inkscape:cy="16.018433"
     inkscape:window-width="1449"
     inkscape:window-height="1041"
     inkscape:window-x="2102"
     inkscape:window-y="0"
     inkscape:window-maximized="0"
     inkscape:current-layer="Stock_cut" /><desc
     id="desc2" /><g
     id="g14"><polygon
       fill="none"
       points="25,11 7,11 9,31    23,31  "
       stroke="#000000"
       stroke-linejoin="round"
       stroke-miterlimit="10"
       stroke-width="2"
       id="polygon4" /><line
       fill="none"
       stroke="#000000"
       stroke-linejoin="round"
       stroke-miterlimit="10"
       stroke-width="2"
       x1="4"
       x2="28"
       y1="11"
       y2="11"
       id="line6" /><line
       fill="none"
       stroke="#000000"
       stroke-linejoin="round"
       stroke-miterlimit="10"
       stroke-width="2"
       x1="13"
       x2="13"
       y1="31"
       y2="14"
       id="line8" /><line
       fill="none"
       stroke="#000000"
       stroke-linejoin="round"
       stroke-miterlimit="10"
       stroke-width="2"
       x1="19"
       x2="19"
       y1="31"
       y2="14"
       id="line10" /><polyline
       fill="none"
       points="13,11 13,7 19,7    19,11  "
       stroke="#000000"
       stroke-linejoin="round"
       stroke-miterlimit="10"
       stroke-width="2"
       id="polyline12" /></g><path
     style="fill:#ffffff;stroke-width:0.0368664"
     d="M 8.7145541,31.930862 C 8.381503,31.811367 8.1385408,31.558122 8.0563543,31.244807 8.0376568,31.173527 7.5977319,26.851613 7.0787434,21.640553 6.5597549,16.429493 6.1272191,12.128571 6.1175528,12.082949 L 6.0999777,12 H 5.0499889 4 v -0.995392 -0.995391 h 3.9975676 3.9975674 l 0.0128,-1.6129036 c 0.01142,-1.4381077 0.01976,-1.6279747 0.077,-1.7519733 0.09729,-0.2107472 0.317779,-0.434015 0.523354,-0.5299493 l 0.184332,-0.086021 H 16 19.207373 l 0.184332,0.086021 c 0.205575,0.095934 0.426065,0.3192021 0.523354,0.5299493 0.05724,0.1239986 0.06559,0.3138656 0.077,1.7519733 l 0.0128,1.6129036 H 24.002432 28 V 11.004608 12 h -1.049989 -1.049989 l -0.01758,0.08295 c -0.0097,0.04562 -0.442202,4.346544 -0.96119,9.557604 -0.518989,5.21106 -0.959548,9.535329 -0.97902,9.609487 -0.06046,0.230244 -0.255305,0.475189 -0.476799,0.599393 l -0.202765,0.113701 -7.207373,0.0078 c -5.830332,0.0063 -7.2328558,-0.0014 -7.3407459,-0.04006 z M 12,22.02765 v -8 h 0.995392 0.995391 v 8 8 H 16 18.009217 v -8 -8 H 19.004608 20 v 8 8 h 1.049989 1.049989 l 0.01757,-0.08295 c 0.01551,-0.07323 1.791986,-17.847261 1.790765,-17.91705 -6.34e-4,-0.03616 -15.8160022,-0.03616 -15.8166344,0 -0.00122,0.06979 1.7752512,17.843822 1.7907657,17.91705 l 0.017574,0.08295 H 10.950011 12 Z M 18.009217,8.9953917 V 7.9815668 H 16 13.990783 V 8.9953917 10.009217 H 16 18.009217 Z"
     id="path194" /></svg>
