<?xml version="1.0" encoding="UTF-8" standalone="no"?>
<!-- Generator: Adobe Illustrator 19.1.0, SVG Export Plug-In . SVG Version: 6.00 Build 0)  -->

<svg
   version="1.1"
   id="Capa_1"
   x="0px"
   y="0px"
   viewBox="0 0 480.3 480.3"
   style="enable-background:new 0 0 480.3 480.3;"
   xml:space="preserve"
   sodipodi:docname="parameters.svg"
   inkscape:version="1.2 (dc2aedaf03, 2022-05-15)"
   xmlns:inkscape="http://www.inkscape.org/namespaces/inkscape"
   xmlns:sodipodi="http://sodipodi.sourceforge.net/DTD/sodipodi-0.dtd"
   xmlns="http://www.w3.org/2000/svg"
   xmlns:svg="http://www.w3.org/2000/svg"><defs
   id="defs45" /><sodipodi:namedview
   id="namedview43"
   pagecolor="#ffffff"
   bordercolor="#000000"
   borderopacity="0.25"
   inkscape:showpageshadow="2"
   inkscape:pageopacity="0.0"
   inkscape:pagecheckerboard="0"
   inkscape:deskcolor="#d1d1d1"
   showgrid="false"
   inkscape:zoom="1.8072039"
   inkscape:cx="240.14999"
   inkscape:cy="239.87332"
   inkscape:window-width="1888"
   inkscape:window-height="1057"
   inkscape:window-x="-8"
   inkscape:window-y="-8"
   inkscape:window-maximized="1"
   inkscape:current-layer="Capa_1" />
<g
   id="g10">
	<g
   id="g8">
		<path
   d="M254.15,234.1V13.5c0-7.5-6-13.5-13.5-13.5s-13.5,6-13.5,13.5v220.6c-31.3,6.3-55,34-55,67.2s23.7,60.9,55,67.2v98.2    c0,7.5,6,13.5,13.5,13.5s13.5-6,13.5-13.5v-98.2c31.3-6.3,55-34,55-67.2C309.15,268.2,285.55,240.4,254.15,234.1z M240.65,342.8    c-22.9,0-41.5-18.6-41.5-41.5s18.6-41.5,41.5-41.5s41.5,18.6,41.5,41.5S263.55,342.8,240.65,342.8z"
   id="path2" />
		<path
   d="M88.85,120.9V13.5c0-7.5-6-13.5-13.5-13.5s-13.5,6-13.5,13.5v107.4c-31.3,6.3-55,34-55,67.2s23.7,60.9,55,67.2v211.4    c0,7.5,6,13.5,13.5,13.5s13.5-6,13.5-13.5V255.2c31.3-6.3,55-34,55-67.2S120.15,127.2,88.85,120.9z M75.35,229.6    c-22.9,0-41.5-18.6-41.5-41.5s18.6-41.5,41.5-41.5s41.5,18.6,41.5,41.5S98.15,229.6,75.35,229.6z"
   id="path4" />
		<path
   d="M418.45,120.9V13.5c0-7.5-6-13.5-13.5-13.5s-13.5,6-13.5,13.5v107.4c-31.3,6.3-55,34-55,67.2s23.7,60.9,55,67.2v211.5    c0,7.5,6,13.5,13.5,13.5s13.5-6,13.5-13.5V255.2c31.3-6.3,55-34,55-67.2S449.85,127.2,418.45,120.9z M404.95,229.6    c-22.9,0-41.5-18.6-41.5-41.5s18.6-41.5,41.5-41.5s41.5,18.6,41.5,41.5S427.85,229.6,404.95,229.6z"
   id="path6" />
	</g>
</g>
<g
   id="g12">
</g>
<g
   id="g14">
</g>
<g
   id="g16">
</g>
<g
   id="g18">
</g>
<g
   id="g20">
</g>
<g
   id="g22">
</g>
<g
   id="g24">
</g>
<g
   id="g26">
</g>
<g
   id="g28">
</g>
<g
   id="g30">
</g>
<g
   id="g32">
</g>
<g
   id="g34">
</g>
<g
   id="g36">
</g>
<g
   id="g38">
</g>
<g
   id="g40">
</g>
<path
   style="fill:#ffffff;stroke-width:0.553341"
   d="m 70.274307,478.89521 c -2.525542,-1.13064 -5.329897,-3.84945 -6.826917,-6.61867 L 62.250862,470.06318 62.105666,362.59617 61.960475,255.12916 59.615633,254.53739 C 47.120798,251.384 36.70726,245.41984 27.33887,236.05145 17.646984,226.35956 12.119073,216.52451 8.8046859,203.07615 7.6814342,198.51847 7.512642,196.49487 7.5354206,187.85927 7.5601133,178.49806 7.6666364,177.50086 9.3069054,171.27597 15.757242,146.79666 34.68982,128.15613 59.612143,121.74673 l 2.341348,-0.60214 0.148689,-55.453889 0.148682,-55.453893 1.291919,-2.4215852 c 1.53655,-2.8801366 3.460157,-4.7628356 6.404335,-6.2681462 1.727354,-0.88316816 2.973755,-1.06487767 6.190215,-0.90245392 3.398858,0.1716347 4.397777,0.46370312 6.40085,1.87151722 1.305414,0.9174793 3.126382,2.8858493 4.046593,4.3741557 l 1.673115,2.7060118 0.146088,55.7080016 0.146093,55.708001 4.519756,1.23866 c 23.745094,6.50743 41.945164,24.96375 48.429594,49.11144 1.32981,4.95216 1.46171,6.37963 1.49869,16.22019 0.0424,11.2999 -0.17417,12.92243 -2.84424,21.30363 -6.95234,21.82296 -25.43205,39.28843 -47.745923,45.12539 l -3.596717,0.94085 -0.27667,107.8755 -0.276671,107.87551 -1.674653,2.7086 c -2.420856,3.91552 -5.999782,5.98412 -10.709478,6.19002 -2.439215,0.10664 -4.309707,-0.1295 -5.599451,-0.70689 z m 15.2667,-250.35776 c 2.407299,-0.60449 6.493435,-2.1518 9.080304,-3.43848 3.821323,-1.90067 5.693719,-3.32898 9.983989,-7.61605 8.73437,-8.72785 12.27828,-17.19833 12.27828,-29.34698 0,-16.11786 -8.20039,-29.71117 -22.380286,-37.09854 -6.200108,-3.23009 -11.529357,-4.46303 -19.248918,-4.45328 -6.486307,0.008 -9.657411,0.57838 -15.616396,2.80792 -7.254153,2.71413 -15.951065,10.16415 -20.276215,17.36919 -6.288913,10.47638 -7.405333,25.26428 -2.780297,36.82733 3.991892,9.98013 12.32639,18.63986 21.946951,22.8034 7.814655,3.38198 18.658462,4.24326 27.012588,2.14549 z"
   id="path220" /><path
   style="fill:#ffffff;stroke-width:0.553341"
   d="m 234.70976,478.30609 c -1.58996,-0.79231 -3.50149,-2.24118 -4.24785,-3.21971 -3.13983,-4.11653 -3.03876,-2.22922 -3.03876,-56.7421 v -50.19641 l -3.18171,-0.69057 c -7.80159,-1.69328 -18.70084,-7.07859 -25.90426,-12.79927 -22.2854,-17.6982 -31.34367,-47.98523 -22.36589,-74.78209 5.17976,-15.46057 15.71978,-28.5488 29.92234,-37.15652 4.79181,-2.90416 13.65493,-6.56982 18.34781,-7.58837 l 3.18171,-0.69057 0.003,-111.27183 c 0.002,-74.945407 0.18972,-111.944681 0.57526,-113.3328721 0.83167,-2.9945852 3.75368,-6.5197205 6.61485,-7.9802165 5.36242,-2.7372612 12.83724,-1.12044274 16.39705,3.5467147 3.1307,4.1045566 2.96989,-2.282038 2.96989,117.9469739 v 110.99987 l 4.78619,1.23728 c 10.14106,2.62157 21.56535,9.29035 29.57028,17.26129 9.52411,9.48365 14.99301,19.05734 18.6392,32.62918 1.2949,4.81987 1.42492,6.26314 1.42492,15.8173 0,9.55417 -0.13002,10.99744 -1.42492,15.81731 -4.37846,16.29748 -12.67665,28.92503 -25.2873,38.48031 -5.93622,4.49795 -16.49586,9.76487 -22.85553,11.39983 l -4.83062,1.24186 -0.14945,50.91485 -0.14944,50.91485 -1.19653,2.21336 c -3.71141,6.86544 -11.1005,9.36833 -17.80056,6.02955 z m 16.78372,-136.62281 c 5.08535,-1.37946 11.78099,-4.84618 15.80919,-8.18533 6.7106,-5.56272 12.11448,-14.39624 14.01283,-22.90621 1.13712,-5.09755 1.13712,-13.49758 0,-18.59513 -2.67553,-11.99398 -11.17648,-22.79785 -22.07524,-28.05547 -5.75498,-2.77622 -9.8656,-3.84336 -16.32356,-4.23769 -12.03494,-0.73485 -22.7643,3.33925 -31.56839,11.98698 -16.54734,16.25349 -16.54734,42.954 0,59.20749 6.14704,6.03787 12.85837,9.67689 20.97541,11.3733 4.61013,0.96349 14.57738,0.65779 19.16976,-0.58794 z"
   id="path222" /><path
   style="fill:#ffffff;stroke-width:0.553341"
   d="m 399.09811,478.61178 c -2.70774,-1.37443 -4.85729,-3.72503 -6.29941,-6.88858 -0.96517,-2.11729 -1.0095,-6.8661 -1.02112,-109.40185 l -0.0122,-107.18849 -2.3517,-0.60493 c -17.24485,-4.43586 -31.58836,-14.4495 -41.03765,-28.64962 -4.39352,-6.60246 -7.4988,-13.45876 -9.52773,-21.03671 -1.90311,-7.10807 -2.43598,-20.48265 -1.11752,-28.04915 4.60596,-26.43306 24.321,-47.90917 50.29179,-54.78414 l 3.7273,-0.98668 0.14609,-55.712662 0.14609,-55.7126606 1.67311,-2.7060118 c 0.92021,-1.4883064 2.74562,-3.4597906 4.05644,-4.381076 2.06304,-1.4499583 2.95362,-1.69881187 6.627,-1.85177457 3.98374,-0.16588611 4.42694,-0.0643313 7.23553,1.65795117 2.21638,1.3591309 3.43546,2.6234812 4.7034,4.8780368 l 1.71155,3.043375 0.14868,55.453893 0.14869,55.453889 2.34134,0.60214 c 19.82349,5.09811 35.44728,17.29776 44.60317,34.82787 5.01734,9.60634 7.20467,17.92587 7.64327,29.07131 0.87133,22.14133 -9.21099,43.29024 -27.04375,56.72763 -7.31396,5.51123 -13.65501,8.65809 -22.7195,11.27497 l -4.56856,1.31892 -0.27667,107.54787 -0.27667,107.54788 -1.71873,3.04337 c -2.45217,4.34212 -5.72737,6.29286 -10.95423,6.52447 -3.16152,0.14008 -4.38564,-0.0587 -6.27806,-1.01924 z m 18.95102,-250.84674 c 14.51466,-4.95929 25.43896,-17.49852 27.97808,-32.11402 1.03821,-5.97608 0.42127,-15.15203 -1.37955,-20.51859 -4.66165,-13.89202 -15.46902,-23.81957 -30.18709,-27.72959 -4.63395,-1.23106 -14.79021,-1.08336 -20.08709,0.29212 -14.43357,3.7481 -25.90727,15.23239 -29.8249,29.85244 -1.57751,5.88707 -1.56802,15.32399 0.0214,21.26067 3.86161,14.42376 15.38383,25.85529 29.96216,29.72632 6.31302,1.67632 17.42286,1.31286 23.517,-0.76935 z"
   id="path224" /></svg>
