<?xml version="1.0" encoding="UTF-8" standalone="no"?>
<!-- Generator: Adobe Illustrator 19.0.0, SVG Export Plug-In . SVG Version: 6.00 Build 0)  -->

<svg
   version="1.1"
   id="Capa_1"
   x="0px"
   y="0px"
   viewBox="0 0 58 58"
   style="enable-background:new 0 0 58 58;"
   xml:space="preserve"
   sodipodi:docname="playsvgrepocom.svg"
   inkscape:version="1.2 (dc2aedaf03, 2022-05-15)"
   xmlns:inkscape="http://www.inkscape.org/namespaces/inkscape"
   xmlns:sodipodi="http://sodipodi.sourceforge.net/DTD/sodipodi-0.dtd"
   xmlns="http://www.w3.org/2000/svg"
   xmlns:svg="http://www.w3.org/2000/svg"><defs
   id="defs43" /><sodipodi:namedview
   id="namedview41"
   pagecolor="#ffffff"
   bordercolor="#000000"
   borderopacity="0.25"
   inkscape:showpageshadow="2"
   inkscape:pageopacity="0.0"
   inkscape:pagecheckerboard="0"
   inkscape:deskcolor="#d1d1d1"
   showgrid="false"
   inkscape:zoom="14.965517"
   inkscape:cx="29"
   inkscape:cy="28.96659"
   inkscape:window-width="1887"
   inkscape:window-height="1057"
   inkscape:window-x="1912"
   inkscape:window-y="-8"
   inkscape:window-maximized="1"
   inkscape:current-layer="Capa_1" />
<circle
   style="fill:#00ff51;fill-opacity:1"
   cx="29"
   cy="29"
   r="29"
   id="circle2" />
<g
   id="g8">
	<polygon
   style="fill:#FFFFFF;"
   points="44,29 22,44 22,29.273 22,14  "
   id="polygon4" />
	<path
   style="fill:#FFFFFF;"
   d="M22,45c-0.16,0-0.321-0.038-0.467-0.116C21.205,44.711,21,44.371,21,44V14   c0-0.371,0.205-0.711,0.533-0.884c0.328-0.174,0.724-0.15,1.031,0.058l22,15C44.836,28.36,45,28.669,45,29s-0.164,0.64-0.437,0.826   l-22,15C22.394,44.941,22.197,45,22,45z M23,15.893v26.215L42.225,29L23,15.893z"
   id="path6" />
</g>
<g
   id="g10">
</g>
<g
   id="g12">
</g>
<g
   id="g14">
</g>
<g
   id="g16">
</g>
<g
   id="g18">
</g>
<g
   id="g20">
</g>
<g
   id="g22">
</g>
<g
   id="g24">
</g>
<g
   id="g26">
</g>
<g
   id="g28">
</g>
<g
   id="g30">
</g>
<g
   id="g32">
</g>
<g
   id="g34">
</g>
<g
   id="g36">
</g>
<g
   id="g38">
</g>
<path
   style="fill:#00ff00;fill-opacity:0;stroke:#241c1c;stroke-width:0.0759747"
   d="M 27.730415,57.928278 C 22.241465,57.703094 16.799929,55.839213 12.261521,52.629741 9.9473147,50.993181 7.6022357,48.715846 5.8831431,46.435622 2.8001612,42.346317 0.85684402,37.511696 0.231126,32.374424 c -0.22751928,-1.86798 -0.22751928,-4.880868 0,-6.748848 C 0.91676564,19.996337 3.1539354,14.805074 6.7822467,10.423963 7.4894444,9.5700368 9.1532954,7.8813982 10.056452,7.1009801 15.00678,2.8233961 21.25401,0.34125115 27.735398,0.07679452 c 7.137375,-0.2912225 13.8154,1.90272078 19.455223,6.39165818 1.142371,0.9092535 3.431673,3.1985556 4.340926,4.3409263 3.943694,4.954788 6.169651,10.855319 6.389714,16.937741 0.135312,3.739986 -0.321385,7.013505 -1.449988,10.393234 -1.420858,4.254918 -3.648644,7.897987 -6.785969,11.097004 -1.949032,1.987357 -3.946853,3.542917 -6.252124,4.868083 -3.891422,2.236951 -8.649576,3.646462 -12.813884,3.795865 -0.541477,0.01943 -1.149884,0.04424 -1.352015,0.05513 -0.202131,0.0109 -0.893721,-0.0018 -1.536866,-0.02816 z M 22.454189,44.916347 C 22.999066,44.632433 44.684468,29.78535 44.836406,29.592186 44.97009,29.422227 45.003456,29.303947 45.003456,29 c 0,-0.303947 -0.03337,-0.422227 -0.16705,-0.592186 -0.151938,-0.193164 -21.83734,-15.040247 -22.382217,-15.324161 -0.127211,-0.06629 -0.323807,-0.120519 -0.436878,-0.120519 -0.317325,0 -0.774208,0.26673 -0.913865,0.533519 C 20.986522,13.720016 20.981567,14.350309 20.981567,29 c 0,14.649691 0.005,15.279984 0.121879,15.503347 0.139657,0.266789 0.59654,0.533519 0.913865,0.533519 0.113071,0 0.309667,-0.05423 0.436878,-0.120519 z"
   id="path896" /></svg>
