<?xml version="1.0" encoding="UTF-8" standalone="no"?>
<!-- Generator: Adobe Illustrator 19.1.0, SVG Export Plug-In . SVG Version: 6.00 Build 0)  -->

<svg
   version="1.1"
   id="Capa_1"
   x="0px"
   y="0px"
   viewBox="0 0 478.703 478.703"
   style="enable-background:new 0 0 478.703 478.703;"
   xml:space="preserve"
   sodipodi:docname="settings.svg"
   inkscape:version="1.2 (dc2aedaf03, 2022-05-15)"
   xmlns:inkscape="http://www.inkscape.org/namespaces/inkscape"
   xmlns:sodipodi="http://sodipodi.sourceforge.net/DTD/sodipodi-0.dtd"
   xmlns="http://www.w3.org/2000/svg"
   xmlns:svg="http://www.w3.org/2000/svg"><defs
   id="defs43" /><sodipodi:namedview
   id="namedview41"
   pagecolor="#ffffff"
   bordercolor="#000000"
   borderopacity="0.25"
   inkscape:showpageshadow="2"
   inkscape:pageopacity="0.0"
   inkscape:pagecheckerboard="0"
   inkscape:deskcolor="#d1d1d1"
   showgrid="false"
   inkscape:zoom="1.8132328"
   inkscape:cx="239.3515"
   inkscape:cy="239.07575"
   inkscape:window-width="1888"
   inkscape:window-height="1057"
   inkscape:window-x="-8"
   inkscape:window-y="-8"
   inkscape:window-maximized="1"
   inkscape:current-layer="Capa_1" />
<g
   id="g8">
	<g
   id="g6">
		<path
   d="M454.2,189.101l-33.6-5.7c-3.5-11.3-8-22.2-13.5-32.6l19.8-27.7c8.4-11.8,7.1-27.9-3.2-38.1l-29.8-29.8    c-5.6-5.6-13-8.7-20.9-8.7c-6.2,0-12.1,1.9-17.1,5.5l-27.8,19.8c-10.8-5.7-22.1-10.4-33.8-13.9l-5.6-33.2    c-2.4-14.3-14.7-24.7-29.2-24.7h-42.1c-14.5,0-26.8,10.4-29.2,24.7l-5.8,34c-11.2,3.5-22.1,8.1-32.5,13.7l-27.5-19.8    c-5-3.6-11-5.5-17.2-5.5c-7.9,0-15.4,3.1-20.9,8.7l-29.9,29.8c-10.2,10.2-11.6,26.3-3.2,38.1l20,28.1    c-5.5,10.5-9.9,21.4-13.3,32.7l-33.2,5.6c-14.3,2.4-24.7,14.7-24.7,29.2v42.1c0,14.5,10.4,26.8,24.7,29.2l34,5.8    c3.5,11.2,8.1,22.1,13.7,32.5l-19.7,27.4c-8.4,11.8-7.1,27.9,3.2,38.1l29.8,29.8c5.6,5.6,13,8.7,20.9,8.7c6.2,0,12.1-1.9,17.1-5.5    l28.1-20c10.1,5.3,20.7,9.6,31.6,13l5.6,33.6c2.4,14.3,14.7,24.7,29.2,24.7h42.2c14.5,0,26.8-10.4,29.2-24.7l5.7-33.6    c11.3-3.5,22.2-8,32.6-13.5l27.7,19.8c5,3.6,11,5.5,17.2,5.5l0,0c7.9,0,15.3-3.1,20.9-8.7l29.8-29.8c10.2-10.2,11.6-26.3,3.2-38.1    l-19.8-27.8c5.5-10.5,10.1-21.4,13.5-32.6l33.6-5.6c14.3-2.4,24.7-14.7,24.7-29.2v-42.1    C478.9,203.801,468.5,191.501,454.2,189.101z M451.9,260.401c0,1.3-0.9,2.4-2.2,2.6l-42,7c-5.3,0.9-9.5,4.8-10.8,9.9    c-3.8,14.7-9.6,28.8-17.4,41.9c-2.7,4.6-2.5,10.3,0.6,14.7l24.7,34.8c0.7,1,0.6,2.5-0.3,3.4l-29.8,29.8c-0.7,0.7-1.4,0.8-1.9,0.8    c-0.6,0-1.1-0.2-1.5-0.5l-34.7-24.7c-4.3-3.1-10.1-3.3-14.7-0.6c-13.1,7.8-27.2,13.6-41.9,17.4c-5.2,1.3-9.1,5.6-9.9,10.8l-7.1,42    c-0.2,1.3-1.3,2.2-2.6,2.2h-42.1c-1.3,0-2.4-0.9-2.6-2.2l-7-42c-0.9-5.3-4.8-9.5-9.9-10.8c-14.3-3.7-28.1-9.4-41-16.8    c-2.1-1.2-4.5-1.8-6.8-1.8c-2.7,0-5.5,0.8-7.8,2.5l-35,24.9c-0.5,0.3-1,0.5-1.5,0.5c-0.4,0-1.2-0.1-1.9-0.8l-29.8-29.8    c-0.9-0.9-1-2.3-0.3-3.4l24.6-34.5c3.1-4.4,3.3-10.2,0.6-14.8c-7.8-13-13.8-27.1-17.6-41.8c-1.4-5.1-5.6-9-10.8-9.9l-42.3-7.2    c-1.3-0.2-2.2-1.3-2.2-2.6v-42.1c0-1.3,0.9-2.4,2.2-2.6l41.7-7c5.3-0.9,9.6-4.8,10.9-10c3.7-14.7,9.4-28.9,17.1-42    c2.7-4.6,2.4-10.3-0.7-14.6l-24.9-35c-0.7-1-0.6-2.5,0.3-3.4l29.8-29.8c0.7-0.7,1.4-0.8,1.9-0.8c0.6,0,1.1,0.2,1.5,0.5l34.5,24.6    c4.4,3.1,10.2,3.3,14.8,0.6c13-7.8,27.1-13.8,41.8-17.6c5.1-1.4,9-5.6,9.9-10.8l7.2-42.3c0.2-1.3,1.3-2.2,2.6-2.2h42.1    c1.3,0,2.4,0.9,2.6,2.2l7,41.7c0.9,5.3,4.8,9.6,10,10.9c15.1,3.8,29.5,9.7,42.9,17.6c4.6,2.7,10.3,2.5,14.7-0.6l34.5-24.8    c0.5-0.3,1-0.5,1.5-0.5c0.4,0,1.2,0.1,1.9,0.8l29.8,29.8c0.9,0.9,1,2.3,0.3,3.4l-24.7,34.7c-3.1,4.3-3.3,10.1-0.6,14.7    c7.8,13.1,13.6,27.2,17.4,41.9c1.3,5.2,5.6,9.1,10.8,9.9l42,7.1c1.3,0.2,2.2,1.3,2.2,2.6v42.1H451.9z"
   id="path2" />
		<path
   d="M239.4,136.001c-57,0-103.3,46.3-103.3,103.3s46.3,103.3,103.3,103.3s103.3-46.3,103.3-103.3S296.4,136.001,239.4,136.001    z M239.4,315.601c-42.1,0-76.3-34.2-76.3-76.3s34.2-76.3,76.3-76.3s76.3,34.2,76.3,76.3S281.5,315.601,239.4,315.601z"
   id="path4" />
	</g>
</g>
<g
   id="g10">
</g>
<g
   id="g12">
</g>
<g
   id="g14">
</g>
<g
   id="g16">
</g>
<g
   id="g18">
</g>
<g
   id="g20">
</g>
<g
   id="g22">
</g>
<g
   id="g24">
</g>
<g
   id="g26">
</g>
<g
   id="g28">
</g>
<g
   id="g30">
</g>
<g
   id="g32">
</g>
<g
   id="g34">
</g>
<g
   id="g36">
</g>
<g
   id="g38">
</g>
<path
   style="fill:#ffffff;stroke-width:0.551501"
   d="m 214.38946,478.10822 c -10.76738,-1.45718 -20.03613,-8.96033 -23.79122,-19.25926 -0.49768,-1.36496 -2.24937,-10.48438 -3.89265,-20.26537 -1.64327,-9.78099 -3.1248,-18.00533 -3.29228,-18.27631 -0.16748,-0.271 -0.98933,-0.66247 -1.82634,-0.86996 -3.42614,-0.84933 -16.85131,-6.1499 -23.18345,-9.15338 l -6.77108,-3.21168 -14.70775,10.49183 c -8.08926,5.77051 -15.84851,11.0699 -17.24277,11.77643 -4.85424,2.45984 -8.54835,3.19538 -14.582,2.90346 -6.05628,-0.29302 -9.511975,-1.33203 -13.981572,-4.20375 -1.431327,-0.91963 -10.805143,-9.9369 -20.8307,-20.03836 -16.933402,-17.06161 -18.352067,-18.64054 -19.970769,-22.22681 -3.414774,-7.56551 -3.649041,-15.30577 -0.697701,-23.05235 0.99994,-2.6246 11.044179,-17.29425 22.170207,-32.37966 1.012849,-1.37329 1.005503,-1.41489 -0.876164,-4.96351 -2.732727,-5.15361 -7.555776,-16.41938 -9.960194,-23.26518 -1.828397,-5.20577 -2.242519,-5.93488 -3.523772,-6.204 -0.798541,-0.16773 -8.892442,-1.56399 -17.986453,-3.10279 C 30.34879,291.26876 21.580146,289.54295 19.956925,288.97243 10.954867,285.80846 4.2806023,278.6163 1.2897986,268.85681 0.36944726,265.85355 0.27575058,263.2547 0.27575058,240.73025 c 0,-18.15914 0.18828746,-25.61718 0.70179426,-27.79798 2.19457936,-9.32009 9.23846516,-17.4568 18.12622616,-20.93842 1.558968,-0.61069 10.369199,-2.37081 19.578291,-3.91135 9.209092,-1.54055 17.38879,-2.93143 18.177106,-3.09083 1.216501,-0.24598 1.57683,-0.80605 2.382143,-3.70261 1.366824,-4.91619 6.63077,-17.99468 9.730361,-24.17548 l 2.659642,-5.30352 -11.177947,-15.71475 C 52.977619,125.58537 48.869559,119.2953 48.050025,117.10389 44.629803,107.9583 45.789888,98.251106 51.284307,90.040538 53.981736,86.009644 85.919485,54.31889 89.66346,51.958198 c 8.449263,-5.327523 19.64712,-5.909872 28.39553,-1.47672 2.17755,1.103455 9.55959,6.268906 28.96312,20.266458 l 2.80456,2.023182 6.01945,-3.026473 c 5.39909,-2.71456 19.27185,-8.435337 24.60628,-10.147015 1.12298,-0.360334 2.16261,-1.074125 2.31028,-1.586205 0.14767,-0.51208 1.54026,-8.500409 3.09464,-17.751841 1.55437,-9.251432 3.40301,-18.487537 4.10807,-20.524678 3.04298,-8.792026 10.24114,-15.4641734 19.8974,-18.4433661 2.9958,-0.92428067 5.57781,-1.01578932 28.66146,-1.01578932 24.65522,0 25.47833,0.03438 29.25246,1.22182932 9.21334,2.8987742 16.91568,10.5593561 19.56553,19.4594641 0.58702,1.971617 2.33412,11.153614 3.88245,20.404438 1.54832,9.250825 2.85699,16.833019 2.90815,16.849322 0.0512,0.01632 1.58208,0.476772 3.40203,1.023266 5.51511,1.65607 18.39301,6.89886 24.65227,10.036317 l 5.90123,2.957988 14.78006,-10.519973 c 8.12904,-5.785986 15.95473,-11.119718 17.39043,-11.852734 7.94207,-4.054929 17.03746,-3.983232 25.79195,0.203312 3.86965,1.850534 5.31184,3.153677 22.3747,20.217494 19.40392,19.404998 20.44847,20.703475 22.5715,28.058327 1.27744,4.425489 1.17991,11.303329 -0.22443,15.825939 -1.46139,4.70632 -2.9721,7.1345 -14.33834,23.04611 l -9.56843,13.39485 2.90315,6.18344 c 3.44135,7.32979 6.97291,16.0283 9.04491,22.27831 1.30945,3.94988 1.68146,4.55042 2.97976,4.81033 0.81593,0.16334 8.87807,1.55155 17.91586,3.0849 9.0378,1.53335 17.59986,3.17606 19.02679,3.65048 8.41141,2.7965 15.68423,10.36269 18.46914,19.21413 1.18745,3.77413 1.22183,4.59724 1.22183,29.25246 0,23.05165 -0.0925,25.66869 -1.01223,28.64923 -3.0345,9.8334 -9.33325,16.75999 -18.28729,20.11013 -1.60343,0.59992 -10.57394,2.35923 -19.93446,3.90959 -9.36053,1.55035 -17.52265,3.02275 -18.13805,3.27198 -0.73583,0.298 -1.46433,1.56196 -2.12778,3.69168 -1.63998,5.2645 -5.76229,15.44425 -9.14414,22.58083 l -3.15496,6.65778 10.74276,15.12652 c 5.90852,8.31958 11.19663,16.13475 11.75137,17.36703 3.86215,8.57937 3.54909,17.65697 -0.90098,26.12547 -1.62465,3.09172 -4.72285,6.4448 -20.25201,21.91805 -19.64713,19.57642 -20.90528,20.57503 -28.37299,22.52013 -5.85164,1.52416 -13.15867,0.80855 -19.15597,-1.87602 -1.23228,-0.55161 -9.02733,-5.84901 -17.32231,-11.772 l -15.0818,-10.76907 -7.254,3.45718 c -6.72396,3.20456 -20.08838,8.50595 -23.70138,9.40184 -0.85627,0.21232 -1.7503,0.91299 -1.98674,1.55704 -0.23645,0.64405 -1.7267,8.84468 -3.31169,18.22361 -1.58498,9.37895 -3.36699,18.34946 -3.96002,19.93447 -2.49172,6.6597 -7.7323,12.6451 -13.72651,15.67735 -6.87471,3.47767 -6.92353,3.48313 -32.53856,3.63519 -12.89134,0.0765 -25.11696,-0.088 -27.16805,-0.36554 z m 47.75192,-26.56665 c 0.73232,-0.5367 1.7881,-5.67268 4.76724,-23.19096 2.97229,-17.47796 4.10942,-23.01288 5.0934,-24.7918 1.95508,-3.53453 5.03255,-5.52554 11.17432,-7.22937 11.90158,-3.30169 24.61006,-8.62289 38.00288,-15.91227 3.8028,-2.06976 4.76131,-2.36026 7.72101,-2.34001 2.1938,0.015 4.05634,0.38239 5.30947,1.04729 1.06164,0.56329 9.74778,6.61509 19.30254,13.44844 9.94233,7.11054 18.04767,12.53114 18.95142,12.67414 1.44356,0.22841 2.92319,-1.09358 17.23441,-15.39819 12.20245,-12.19681 15.65453,-15.95294 15.6519,-17.03043 -0.002,-0.91409 -4.12705,-7.174 -12.17624,-18.47892 -13.80061,-19.38268 -14.59828,-20.63902 -15.10471,-23.79031 -0.52508,-3.26732 0.44251,-6.20017 4.42892,-13.4244 5.61946,-10.1837 10.16367,-21.45531 14.3156,-35.50886 1.24129,-4.20156 1.80747,-5.25049 4.02696,-7.46053 1.53821,-1.53166 3.47469,-2.83474 4.7886,-3.2223 1.2133,-0.35788 11.88168,-2.2655 23.70752,-4.23913 16.91154,-2.82241 21.65017,-3.79175 22.19792,-4.54084 1.0804,-1.47752 1.00392,-45.0229 -0.0806,-45.92301 -0.42738,-0.35469 -10.91279,-2.374 -23.30092,-4.48735 -28.64264,-4.88629 -28.17737,-4.6484 -31.65127,-16.18335 -3.57511,-11.871 -6.51323,-19.23398 -12.15095,-30.45051 -3.21982,-6.40597 -6.01134,-12.43288 -6.20339,-13.39312 -0.88121,-4.40605 0.12133,-6.25281 14.019,-25.82407 8.8887,-12.51743 13.18699,-19.02754 13.18699,-19.97278 0,-1.94615 -30.49797,-32.569276 -32.43616,-32.569276 -0.79516,0 -8.29876,5.028477 -19.71911,13.214585 -12.42046,8.902999 -19.19862,13.420069 -20.77437,13.844381 -2.80166,0.75441 -6.5844,0.32194 -9.23778,-1.056139 -1.06508,-0.553161 -5.0387,-2.636098 -8.83027,-4.628749 -8.55328,-4.495159 -19.98723,-9.049506 -29.88435,-11.903469 -4.1517,-1.197199 -8.30921,-2.718366 -9.23891,-3.380366 -2.08881,-1.487365 -4.2637,-4.286559 -4.98434,-6.415089 -0.29894,-0.882975 -2.17132,-11.284254 -4.16085,-23.113953 -3.10385,-18.455433 -3.77939,-21.645544 -4.75909,-22.473673 -1.04521,-0.883509 -2.97884,-0.965127 -22.86497,-0.965127 -20.05752,0 -21.79814,0.07495 -22.70062,0.977422 -0.7454,0.745407 -1.80114,5.883705 -4.44755,21.64642 -1.90857,11.367949 -3.81723,21.916539 -4.24147,23.441313 -0.89414,3.213696 -3.82592,6.903013 -6.49033,8.167357 -1.01978,0.48392 -4.81266,1.771769 -8.4286,2.861883 -11.44303,3.449794 -22.13959,8.098728 -35.41315,15.391266 -4.36067,2.395764 -7.69798,2.949574 -11.1405,1.848694 -1.64907,-0.52735 -9.14302,-5.499769 -20.8941,-13.863764 -10.59746,-7.542876 -18.83578,-13.041491 -19.53946,-13.041491 -0.85834,0 -5.804019,4.589477 -16.792939,15.583476 -12.619229,12.625059 -15.576278,15.862969 -15.576278,17.055739 0,1.03802 3.90155,6.95234 13.227551,20.05154 7.302272,10.25668 13.477011,19.47737 13.784451,20.5842 1.252985,4.51099 0.828645,6.13772 -4.078312,15.6341 -5.630584,10.89682 -9.5022,20.46846 -12.702588,31.40409 -4.173783,14.26169 -3.152006,13.67749 -32.545507,18.60789 -12.331467,2.06845 -22.716745,4.05649 -23.078396,4.41787 -0.481629,0.48125 -0.699228,6.52938 -0.813347,22.60678 -0.144675,20.38241 -0.0856,22.0339 0.827252,23.12828 0.8559,1.0261 3.729404,1.64662 22.215847,4.7974 24.259758,4.13477 24.386543,4.163 27.142162,6.0426 2.826494,1.92796 4.447979,4.9604 6.785362,12.68973 3.091412,10.22279 6.457019,18.33208 12.432033,29.95443 5.809129,11.29969 6.209239,12.71189 4.868989,17.18524 -0.33691,1.1245 -6.421173,10.2117 -13.520587,20.19378 -7.099413,9.98208 -13.061786,18.73444 -13.24971,19.4497 -0.297954,1.13402 1.69677,3.33983 15.585152,17.23441 10.349605,10.35423 16.314335,15.93179 17.033405,15.92778 0.60861,-0.003 9.29636,-5.86322 19.3061,-13.02185 10.00975,-7.15862 19.05754,-13.38506 20.1062,-13.83651 1.04866,-0.45146 3.28231,-0.82084 4.96365,-0.82084 2.74638,0 3.99212,0.47614 12.26,4.68589 10.59504,5.39467 20.39321,9.37153 30.22905,12.26929 3.79157,1.11705 7.55133,2.36867 8.35503,2.78137 2.10871,1.08283 5.15555,4.84739 5.87204,7.25525 0.33915,1.13978 2.23143,11.74799 4.20506,23.57383 2.82241,16.91154 3.79175,21.65017 4.54084,22.19792 1.37127,1.0027 44.22391,1.00931 45.5915,0.007 z"
   id="path218" /><path
   style="fill:#ffffff;stroke-width:0.551501"
   d="m 232.73349,342.12499 c -19.21233,-1.79856 -34.9576,-7.09013 -49.35936,-16.58837 -23.13734,-15.25952 -38.8708,-38.06897 -44.62858,-64.6999 -3.84482,-17.78308 -2.91099,-35.60376 2.80029,-53.43927 2.55373,-7.97494 8.99949,-20.81714 13.83681,-27.56775 4.43143,-6.18418 13.53633,-15.84106 19.38128,-20.55625 21.00435,-16.94447 48.20306,-25.13982 74.59404,-22.47623 39.83396,4.02037 74.21803,31.09687 87.24293,68.70139 7.51769,21.70452 7.63821,44.64666 0.34958,66.54545 -3.67142,11.03087 -10.03565,22.61627 -17.52093,31.89501 -4.72929,5.86244 -14.38673,14.9625 -20.55624,19.36985 -6.5382,4.67074 -19.95757,11.43451 -27.53474,13.87837 -12.31558,3.97212 -27.78464,5.95066 -38.60508,4.9377 z m 21.77401,-27.82026 c 30.24709,-6.14664 53.46448,-29.22158 59.90261,-59.53509 1.63073,-7.67817 1.78391,-22.06849 0.31309,-29.41193 -3.1869,-15.91129 -10.06623,-28.86519 -21.28947,-40.08843 -11.22325,-11.22325 -24.17715,-18.10258 -40.08844,-21.28947 -7.34344,-1.47083 -21.73376,-1.31765 -29.41192,0.31308 -30.70249,6.52075 -54.00433,30.36114 -59.88697,61.27108 -1.46093,7.67636 -1.35583,21.02227 0.22449,28.50622 7.04875,33.38092 33.02103,57.23833 66.80809,61.36804 5.87449,0.71802 16.95546,0.18191 23.42852,-1.1335 z"
   id="path220" /></svg>
