<?xml version="1.0" encoding="UTF-8" standalone="no"?>
<!-- Generator: Adobe Illustrator 17.1.0, SVG Export Plug-In . SVG Version: 6.00 Build 0)  -->

<svg
   version="1.1"
   id="Capa_1"
   x="0px"
   y="0px"
   viewBox="0 0 512.269 512.269"
   style="enable-background:new 0 0 512.269 512.269;"
   xml:space="preserve"
   sodipodi:docname="speedometer.svg"
   inkscape:version="1.2 (dc2aedaf03, 2022-05-15)"
   xmlns:inkscape="http://www.inkscape.org/namespaces/inkscape"
   xmlns:sodipodi="http://sodipodi.sourceforge.net/DTD/sodipodi-0.dtd"
   xmlns="http://www.w3.org/2000/svg"
   xmlns:svg="http://www.w3.org/2000/svg"><defs
   id="defs49" /><sodipodi:namedview
   id="namedview47"
   pagecolor="#ffffff"
   bordercolor="#000000"
   borderopacity="0.25"
   inkscape:showpageshadow="2"
   inkscape:pageopacity="0.0"
   inkscape:pagecheckerboard="0"
   inkscape:deskcolor="#d1d1d1"
   showgrid="false"
   inkscape:zoom="1.6944223"
   inkscape:cx="256.13449"
   inkscape:cy="255.83941"
   inkscape:window-width="1888"
   inkscape:window-height="1057"
   inkscape:window-x="-8"
   inkscape:window-y="-8"
   inkscape:window-maximized="1"
   inkscape:current-layer="Capa_1" />
<g
   id="g14">
	<path
   d="M224.122,300.269c0,17.652,14.361,32.013,32.013,32.013c17.652,0,32.013-14.361,32.013-32.013c0-4.418-3.582-8-8-8   s-8,3.582-8,8c0,8.83-7.183,16.013-16.013,16.013s-16.013-7.183-16.013-16.013c0-1.651,0.252-3.245,0.718-4.744   c0.276-0.42,0.528-0.86,0.727-1.341c0.192-0.467,0.332-0.941,0.432-1.418c2.695-5.057,8.018-8.509,14.137-8.509   c4.418,0,8-3.582,8-8s-3.582-8-8-8c-10.425,0-19.699,5.011-25.548,12.748l-121.92-50.265c-4.086-1.685-8.762,0.262-10.445,4.347   c-1.684,4.085,0.262,8.761,4.347,10.445l121.875,50.247C224.236,297.246,224.122,298.744,224.122,300.269z"
   id="path2" />
	<path
   d="M437.249,119.155c-48.377-48.377-112.698-75.02-181.114-75.02c-68.417,0-132.737,26.643-181.115,75.02S0,231.853,0,300.269   c0,50.1,14.519,98.672,41.986,140.467c1.537,2.338,4.089,3.607,6.693,3.607c1.508,0,3.032-0.426,4.386-1.315   c3.692-2.427,4.718-7.387,2.292-11.079c-6.833-10.396-12.801-21.244-17.897-32.443l22.069-9.142   c4.082-1.691,6.021-6.371,4.33-10.453c-1.691-4.083-6.372-6.019-10.453-4.33l-22.084,9.148   c-9.168-24.361-14.316-50.139-15.185-76.461h23.88c4.418,0,8-3.582,8-8s-3.582-8-8-8H16.146   c0.862-26.508,6.002-52.27,15.091-76.496l22.169,9.183c1.001,0.415,2.038,0.611,3.059,0.611c3.139,0,6.118-1.86,7.394-4.94   c1.691-4.082-0.248-8.762-4.33-10.453l-22.169-9.183c10.703-23.558,25.285-45.409,43.42-64.763l16.88,16.88   c1.562,1.562,3.609,2.343,5.657,2.343s4.095-0.781,5.657-2.343c3.125-3.124,3.125-8.189,0-11.313l-16.88-16.88   c19.354-18.134,41.205-32.716,64.763-43.42l9.183,22.169c1.276,3.081,4.255,4.94,7.394,4.94c1.021,0,2.058-0.196,3.059-0.611   c4.082-1.691,6.021-6.371,4.33-10.453l-9.183-22.169c24.226-9.089,49.988-14.229,76.496-15.091v23.871c0,4.418,3.582,8,8,8   s8-3.582,8-8V60.281c26.508,0.862,52.27,6.002,76.496,15.091l-9.183,22.169c-1.691,4.082,0.248,8.762,4.33,10.453   c1.001,0.415,2.038,0.611,3.059,0.611c3.139,0,6.118-1.86,7.394-4.94l9.183-22.169c23.558,10.703,45.409,25.285,64.762,43.42   l-16.88,16.88c-3.125,3.124-3.125,8.189,0,11.313c1.562,1.562,3.609,2.343,5.657,2.343s4.095-0.781,5.657-2.343l16.88-16.88   c18.134,19.354,32.716,41.205,43.42,64.763l-22.169,9.183c-4.082,1.691-6.021,6.371-4.33,10.453c1.276,3.081,4.255,4.94,7.394,4.94   c1.021,0,2.058-0.196,3.059-0.611l22.169-9.183c9.089,24.226,14.229,49.988,15.091,76.496h-23.871c-4.418,0-8,3.582-8,8   s3.582,8,8,8h23.879c-0.868,26.322-6.017,52.1-15.185,76.461l-22.084-9.148c-4.081-1.688-8.761,0.248-10.453,4.33   c-1.691,4.082,0.248,8.762,4.33,10.453l22.069,9.142c-5.096,11.2-11.064,22.047-17.897,32.443c-2.427,3.692-1.4,8.652,2.292,11.079   c3.691,2.425,8.652,1.4,11.079-2.292c27.468-41.794,41.986-90.367,41.986-140.467C512.269,231.853,485.626,167.532,437.249,119.155   z"
   id="path4" />
	<path
   d="M328,388.135H184c-13.233,0-24,10.767-24,24v32c0,13.233,10.767,24,24,24h144c13.233,0,24-10.767,24-24v-32   C352,398.901,341.233,388.135,328,388.135z M336,444.135c0,4.411-3.589,8-8,8H184c-4.411,0-8-3.589-8-8v-32c0-4.411,3.589-8,8-8   h144c4.411,0,8,3.589,8,8V444.135z"
   id="path6" />
	<path
   d="M264,420.135h-16c-4.418,0-8,3.582-8,8s3.582,8,8,8h16c4.418,0,8-3.582,8-8S268.418,420.135,264,420.135z"
   id="path8" />
	<path
   d="M224,420.135h-16c-4.418,0-8,3.582-8,8s3.582,8,8,8h16c4.418,0,8-3.582,8-8S228.418,420.135,224,420.135z"
   id="path10" />
	<path
   d="M304,420.135h-16c-4.418,0-8,3.582-8,8s3.582,8,8,8h16c4.418,0,8-3.582,8-8S308.418,420.135,304,420.135z"
   id="path12" />
</g>
<g
   id="g16">
</g>
<g
   id="g18">
</g>
<g
   id="g20">
</g>
<g
   id="g22">
</g>
<g
   id="g24">
</g>
<g
   id="g26">
</g>
<g
   id="g28">
</g>
<g
   id="g30">
</g>
<g
   id="g32">
</g>
<g
   id="g34">
</g>
<g
   id="g36">
</g>
<g
   id="g38">
</g>
<g
   id="g40">
</g>
<g
   id="g42">
</g>
<g
   id="g44">
</g>
<path
   style="fill:#ffffff;stroke-width:0.590172"
   d="M 44.763092,442.91151 C 43.212253,442.06911 42.289266,440.74947 36.157996,430.6084 16.939816,398.82167 4.7441378,360.74826 1.1966281,321.46327 c -0.81055611,-8.97606 -0.81055611,-33.74592 0,-42.72199 C 7.0181824,214.27362 35.037113,156.79931 81.944954,113.10491 123.86617,74.055531 174.55201,51.39027 233.41288,45.372786 c 9.13162,-0.933546 36.31161,-0.933546 45.44322,0 52.73474,5.391196 97.9681,23.688694 137.50999,55.624624 57.78586,46.67065 92.58844,115.45073 95.21309,188.16895 1.45449,40.29798 -5.07241,75.80902 -20.66739,112.44544 -7.14977,16.79656 -19.85765,39.06899 -23.5287,41.23753 -4.84845,2.86406 -11.29845,-0.81552 -11.29845,-6.44551 0,-2.0793 0.5927,-3.26462 6.32062,-12.64038 3.56711,-5.83884 11.71762,-21.27821 12.32893,-23.3545 0.31858,-1.08204 -0.778,-1.66876 -10.91778,-5.84156 -6.19956,-2.5513 -12.0375,-5.28291 -12.9732,-6.07024 -0.9357,-0.78735 -2.00667,-2.45086 -2.37994,-3.6967 -1.31468,-4.38801 2.64497,-9.45128 7.39121,-9.45128 0.84645,0 6.6645,2.12462 12.929,4.72137 6.26449,2.59676 11.67609,4.72138 12.02576,4.72138 0.74144,0 5.21889,-13.2167 7.79742,-23.0167 3.78528,-14.38637 6.59636,-31.97304 7.47595,-46.7711 l 0.41219,-6.93451 h -12.49279 c -13.60539,0 -15.36071,-0.32162 -17.65182,-3.2343 -2.78355,-3.53872 -1.8932,-8.6819 1.90377,-10.99729 1.63526,-0.99719 3.14441,-1.10869 15.03267,-1.11067 l 13.21493,-0.002 -0.41178,-7.2296 c -0.92017,-16.15565 -4.14596,-35.19663 -8.672,-51.18863 -2.00418,-7.08144 -5.60959,-18.08522 -6.15233,-18.77707 -0.0768,-0.0978 -5.41531,2.01533 -11.86345,4.69596 -12.60008,5.23809 -14.96195,5.72954 -17.74784,3.69285 -2.37004,-1.73267 -3.92245,-5.14361 -3.46086,-7.60412 0.68149,-3.63266 2.81699,-5.07446 14.79635,-9.98988 6.16729,-2.53059 11.44098,-4.81616 11.71931,-5.07906 1.10293,-1.04179 -8.85034,-19.71719 -17.6126,-33.04666 -5.87714,-8.94053 -11.98517,-16.97545 -19.61619,-25.80449 l -5.72511,-6.62391 -9.16991,9.02122 c -5.04346,4.96167 -10.02862,9.3671 -11.07814,9.78983 -5.45547,2.19743 -11.38901,-3.3373 -9.9143,-9.24793 0.24887,-0.99749 3.95321,-5.20104 9.57556,-10.86599 5.04332,-5.08153 9.07273,-9.49777 8.95426,-9.81385 -0.68564,-1.82927 -17.91361,-15.81389 -28.04759,-22.76733 -11.30207,-7.75493 -33.86892,-20.457145 -36.30681,-20.436029 -0.45694,0.004 -2.73499,4.795325 -5.50126,11.570683 -5.51134,13.498766 -6.64705,14.980286 -11.4836,14.980286 -3.46299,0 -6.06117,-1.84815 -7.12353,-5.06711 -0.86696,-2.62691 -0.65501,-3.425609 3.66683,-13.818383 1.95725,-4.706618 4.05254,-9.806631 4.65621,-11.333361 l 1.09757,-2.775873 -9.14152,-2.997811 C 321.23188,68.4977 306.66595,64.899164 296.26616,63.195878 287.1352,61.700403 272.79654,60.197507 267.65962,60.197507 h -3.8529 l -0.002,12.836233 c -0.002,11.682184 -0.10559,13.005794 -1.15217,14.722225 -1.57421,2.58179 -3.75681,3.881595 -6.51785,3.881595 -2.76105,0 -4.94364,-1.299805 -6.51786,-3.881595 -1.04723,-1.717506 -1.15016,-3.040839 -1.15217,-14.813122 l -0.002,-12.927132 -7.65183,0.387272 c -19.08795,0.966072 -40.69117,5.116371 -60.57798,11.637927 l -9.04382,2.965773 1.12115,2.775873 c 0.61662,1.52673 2.89159,7.108801 5.05549,12.404604 4.48757,10.98264 4.59501,12.43332 1.17412,15.85421 -1.70398,1.70399 -2.35055,1.96004 -4.94937,1.96004 -4.93797,0 -6.04263,-1.429 -11.58791,-14.990221 -2.60959,-6.381885 -5.05573,-11.551067 -5.46892,-11.556918 -2.2895,-0.03242 -21.52165,10.640044 -33.6473,18.671839 -10.97439,7.26922 -29.828027,22.34177 -30.739441,24.57465 -0.118471,0.29026 3.910943,4.68536 8.954261,9.76689 5.62235,5.66495 9.32669,9.8685 9.57556,10.86599 1.47471,5.91063 -4.45883,11.44536 -9.9143,9.24793 -1.049521,-0.42273 -6.034683,-4.82816 -11.078136,-9.78983 l -9.16991,-9.02122 -5.725108,6.62391 c -6.932398,8.02073 -13.353695,16.37675 -18.792398,24.4545 -8.196825,12.1742 -19.551886,33.35376 -18.436394,34.38772 0.278326,0.25799 5.552014,2.54312 11.719308,5.07807 11.978017,4.92334 14.114928,6.36752 14.796346,9.9998 0.461597,2.46051 -1.09082,5.87145 -3.460855,7.60412 -2.785892,2.03669 -5.147758,1.54524 -17.74784,-3.69285 -6.448141,-2.68063 -11.805412,-4.79234 -11.905046,-4.69271 -0.09963,0.0996 -1.409021,3.85635 -2.909749,8.34824 -6.462258,19.34246 -10.692744,41.30782 -11.866778,61.61421 l -0.417987,7.2296 13.214925,0.002 c 11.88826,0.002 13.397411,0.11349 15.032673,1.11067 3.796975,2.31539 4.687322,7.45857 1.903766,10.99729 -2.291112,2.91253 -4.046424,3.23415 -17.651818,3.23415 H 15.774183 l 0.412187,6.93451 c 0.879594,14.79806 3.690669,32.38473 7.475952,46.7711 2.578533,9.8 7.055985,23.0167 7.797418,23.0167 0.349676,0 5.76127,-2.12462 12.025764,-4.72138 6.264494,-2.59675 12.082546,-4.72137 12.929004,-4.72137 2.851041,0 5.422856,1.71813 6.785604,4.53318 1.119703,2.313 1.197298,2.94317 0.605598,4.9181 -0.373266,1.24584 -1.444238,2.90935 -2.379938,3.6967 -0.935699,0.78733 -6.773639,3.51894 -12.973201,6.07024 -10.173873,4.18683 -11.23556,4.75589 -10.898554,5.84156 1.055606,3.40069 9.664684,19.24221 16.350544,30.08655 2.426749,3.93614 2.805806,7.0247 1.196495,9.74905 -1.961851,3.32114 -6.824316,4.57555 -10.337964,2.66697 z"
   id="path170" /><path
   style="fill:#ffffff;stroke-width:0.590172"
   d="m 252.58899,331.64705 c -15.76022,-1.81722 -27.66476,-14.95793 -28.03866,-30.95019 l -0.12408,-5.30714 -60.42556,-24.88758 c -33.23406,-13.68816 -61.15036,-25.29362 -62.03622,-25.7899 -2.075683,-1.16283 -3.991566,-4.32016 -3.991566,-6.57798 0,-3.8668 3.699806,-7.54438 7.522816,-7.47762 1.50482,0.0263 21.80667,8.12693 63.58845,25.37245 l 61.37785,25.33384 3.93003,-3.76526 c 6.28845,-6.02483 16.73152,-10.03313 23.04736,-8.84615 4.60051,0.86461 7.35948,5.85298 5.67908,10.26809 -1.12809,2.96392 -3.75018,4.59354 -8.12724,5.05103 -9.00284,0.94099 -15.02924,7.53967 -14.98315,16.40599 0.0258,4.964 1.61797,8.41393 5.48954,11.8948 7.55499,6.79258 19.32364,4.85575 24.85248,-4.09009 0.6729,-1.08878 1.56841,-4.13398 1.99002,-6.76712 0.63672,-3.97656 1.0664,-5.08735 2.53667,-6.55762 3.92509,-3.92509 10.2663,-2.46963 12.28644,2.82005 0.87256,2.28474 0.91758,3.20148 0.33151,6.75026 -2.85597,17.29355 -18.01086,29.06819 -34.90577,27.12014 z"
   id="path172" /><path
   style="fill:#ffffff;stroke-width:0.590172"
   d="m 179.65221,467.39784 c -8.19816,-1.62537 -15.01194,-7.57273 -17.90691,-15.62992 -1.2317,-3.428 -1.26933,-4.27641 -1.09944,-24.78721 l 0.17591,-21.23771 1.73426,-3.54103 c 3.27132,-6.67941 9.82937,-11.75648 17.15123,-13.27805 1.97538,-0.4105 27.82568,-0.56077 78.19775,-0.45456 l 75.24688,0.15866 3.24594,1.31948 c 5.93267,2.41163 11.29785,7.81039 13.75976,13.8459 1.20331,2.95001 1.28767,4.2425 1.46741,22.48281 0.12618,12.80479 -0.0345,20.43766 -0.47488,22.55896 -1.87115,9.01329 -9.50294,16.5401 -18.76499,18.50684 -3.69519,0.78465 -148.78932,0.83769 -152.73292,0.0558 z m 152.54767,-16.21162 c 4.05392,-2.39388 4.19807,-3.18404 4.19704,-23.00749 -0.001,-19.48808 -0.14098,-20.35038 -3.7308,-22.98395 -1.66102,-1.21855 -1.89127,-1.22283 -75.24688,-1.39812 -49.04558,-0.1172 -74.27771,0.026 -75.67088,0.42946 -1.14956,0.3329 -2.87581,1.42501 -3.83612,2.42691 l -1.74601,1.82163 -0.17182,18.66669 c -0.11802,12.82023 0.0355,19.16719 0.49008,20.26468 0.93039,2.24618 3.10193,4.12759 5.39736,4.67626 1.07614,0.25723 34.88819,0.42642 75.1379,0.37598 72.03679,-0.0903 73.21254,-0.11017 75.18013,-1.27205 z"
   id="path174" /><path
   style="fill:#ffffff;stroke-width:0.590172"
   d="m 206.85516,435.6197 c -2.89661,-0.74969 -4.35737,-1.76889 -5.38591,-3.75788 -1.94953,-3.76997 -0.89619,-7.90155 2.6236,-10.29072 1.3806,-0.93712 2.89661,-1.07381 11.90997,-1.07381 9.01336,0 10.52937,0.13669 11.90997,1.07381 3.46581,2.35252 4.53658,6.59144 2.6074,10.32206 -1.68697,3.26224 -3.72891,3.88103 -13.33703,4.04169 -4.70662,0.0787 -9.35422,-0.0631 -10.328,-0.31515 z"
   id="path176" /><path
   style="fill:#ffffff;stroke-width:0.590172"
   d="m 246.54471,435.74411 c -2.3995,-0.40781 -5.5804,-3.68472 -6.0604,-6.24334 -0.49602,-2.64401 0.98234,-5.9825 3.4474,-7.78505 1.5305,-1.11916 2.49213,-1.21843 11.80343,-1.21843 8.88873,0 10.36355,0.13705 11.97525,1.1128 5.03866,3.05048 5.03866,10.08522 0,13.1092 -1.55338,0.93227 -3.20917,1.11842 -10.69064,1.20185 -4.86892,0.0543 -9.58268,-0.0254 -10.47504,-0.17703 z"
   id="path178" /><path
   style="fill:#ffffff;stroke-width:0.590172"
   d="m 286.35662,435.58627 c -5.02408,-1.26902 -7.46505,-6.81842 -4.87072,-11.07325 2.17821,-3.57237 3.48244,-3.99458 13.02111,-4.21522 4.96671,-0.11489 9.62081,0.0688 10.974,0.43321 6.826,1.83805 8.12968,10.16031 2.20029,14.04588 -1.36012,0.89129 -3.07226,1.08403 -10.50373,1.18241 -4.8833,0.0647 -9.75273,-0.10321 -10.82095,-0.37303 z"
   id="path180" /></svg>
