<?xml version="1.0" encoding="UTF-8" standalone="no"?>
<!-- Generator: Adobe Illustrator 19.0.0, SVG Export Plug-In . SVG Version: 6.00 Build 0)  -->

<svg
   version="1.1"
   id="Layer_1"
   x="0px"
   y="0px"
   viewBox="0 0 502 502"
   style="enable-background:new 0 0 502 502;"
   xml:space="preserve"
   sodipodi:docname="tracks.svg"
   inkscape:version="1.2 (dc2aedaf03, 2022-05-15)"
   xmlns:inkscape="http://www.inkscape.org/namespaces/inkscape"
   xmlns:sodipodi="http://sodipodi.sourceforge.net/DTD/sodipodi-0.dtd"
   xmlns="http://www.w3.org/2000/svg"
   xmlns:svg="http://www.w3.org/2000/svg"><defs
   id="defs51" /><sodipodi:namedview
   id="namedview49"
   pagecolor="#ffffff"
   bordercolor="#000000"
   borderopacity="0.25"
   inkscape:showpageshadow="2"
   inkscape:pageopacity="0.0"
   inkscape:pagecheckerboard="0"
   inkscape:deskcolor="#d1d1d1"
   showgrid="false"
   inkscape:zoom="1.7290837"
   inkscape:cx="251"
   inkscape:cy="250.71083"
   inkscape:window-width="1888"
   inkscape:window-height="1057"
   inkscape:window-x="-8"
   inkscape:window-y="-8"
   inkscape:window-maximized="1"
   inkscape:current-layer="Layer_1" />
<g
   id="g16">
	<g
   id="g14">
		<g
   id="g12">
			<path
   d="M493.741,60.665L333.074,32.25c-1.135-0.198-2.348-0.201-3.482,0L170.667,60.357L11.741,32.25     c-2.909-0.51-5.901,0.287-8.167,2.186C1.309,36.336,0,39.141,0,42.098v389.389c0,4.851,3.481,9.002,8.259,9.847l160.667,28.415     c1.147,0.201,2.336,0.201,3.482,0l158.925-28.107l158.926,28.107c0.579,0.102,1.162,0.152,1.741,0.152     c2.332,0,4.611-0.816,6.426-2.338c2.266-1.9,3.574-4.705,3.574-7.662V70.512C502,65.661,498.519,61.51,493.741,60.665z      M160.667,447.977L20,423.1V54.022l140.667,24.877V447.977z M321.333,423.1l-140.666,24.877V78.899l140.666-24.877V423.1z      M482,447.977L341.333,423.1V54.022L482,78.899V447.977z"
   id="path2" />
			<path
   d="M458,297.999c5.522,0,10-4.478,10-10v-186c0-5.522-4.478-10-10-10c-5.522,0-10,4.478-10,10v186     C448,293.522,452.478,297.999,458,297.999z"
   id="path4" />
			<path
   d="M458,367.999c5.522,0,10-4.478,10-10v-28c0-5.522-4.478-10-10-10c-5.522,0-10,4.478-10,10v28     C448,363.522,452.478,367.999,458,367.999z"
   id="path6" />
			<path
   d="M99,162.654v13.345c0,5.522,4.478,10,10,10c5.522,0,10-4.478,10-10v-13.345c16.116-4.402,28-19.163,28-36.655     c0-20.953-17.047-38-38-38s-38,17.047-38,38C71,143.491,82.884,158.252,99,162.654z M109,107.999c9.925,0,18,8.075,18,18     c0,9.925-8.075,18-18,18s-18-8.075-18-18C91,116.074,99.075,107.999,109,107.999z"
   id="path8" />
			<path
   d="M384,374.654v13.345c0,5.522,4.478,10,10,10c5.522,0,10-4.478,10-10v-13.345c16.116-4.402,28-19.163,28-36.655     c0-20.953-17.047-38-38-38s-38,17.047-38,38C356,355.491,367.884,370.252,384,374.654z M394,319.999c9.925,0,18,8.075,18,18     s-8.075,18-18,18s-18-8.075-18-18S384.075,319.999,394,319.999z"
   id="path10" />
		</g>
	</g>
</g>
<g
   id="g18">
</g>
<g
   id="g20">
</g>
<g
   id="g22">
</g>
<g
   id="g24">
</g>
<g
   id="g26">
</g>
<g
   id="g28">
</g>
<g
   id="g30">
</g>
<g
   id="g32">
</g>
<g
   id="g34">
</g>
<g
   id="g36">
</g>
<g
   id="g38">
</g>
<g
   id="g40">
</g>
<g
   id="g42">
</g>
<g
   id="g44">
</g>
<g
   id="g46">
</g>
<path
   style="fill:#ffffff;stroke-width:0.578341"
   d="m 104.58169,184.47529 c -4.17657,-2.20626 -4.780969,-3.80355 -5.107036,-13.49684 l -0.28917,-8.59643 -3.64469,-1.31803 C 80.636358,155.67412 70.055065,139.03693 71.450695,123.18664 72.608971,110.032 80.641355,98.177672 92.245392,92.497483 c 6.095342,-2.983677 10.392028,-4.011308 16.771888,-4.011308 6.37987,0 10.67655,1.027631 16.77189,4.011308 16.42579,8.040447 24.81208,27.842947 19.03185,44.939817 -3.75682,11.11196 -11.87252,19.65842 -22.43256,23.62319 l -3.53938,1.32887 -0.28917,8.59276 c -0.26326,7.82267 -0.41016,8.76239 -1.63914,10.48547 -2.77752,3.89415 -8.17182,5.20903 -12.33908,3.0077 z m 12.70095,-42.1238 c 12.07564,-6.24848 13.34792,-23.60205 2.28827,-31.21129 -14.49445,-9.97245 -32.946957,3.55919 -27.923031,20.47658 1.534256,5.1664 5.796771,9.6077 11.122161,11.58867 3.35188,1.24686 11.36369,0.77542 14.5126,-0.85396 z"
   id="path122" /><path
   style="fill:#ffffff;stroke-width:0.578341"
   d="M 87.937231,455.16472 C 33.047588,445.41182 6.652478,440.49254 5.2981595,439.76319 4.2037171,439.17379 2.628968,437.66507 1.7987173,436.41048 L 0.28917051,434.1294 V 236.87288 39.616359 L 1.4771212,37.594131 c 1.2874821,-2.191659 4.2268735,-4.439757 6.5852978,-5.036552 0.9053264,-0.229091 32.814043,5.156626 82.158779,13.86718 L 170.89977,60.666503 251,46.460549 331.10023,32.254596 412.35714,46.557834 c 55.19317,9.715371 82.05756,14.675033 83.75302,15.462353 1.53583,0.713189 3.0933,2.061512 4.04839,3.504762 l 1.55228,2.345649 V 265.12712 462.38364 l -1.18795,2.02223 c -1.40598,2.39337 -4.28206,4.46323 -6.87848,4.95033 -1.22136,0.22913 -29.53152,-4.54585 -82.06557,-13.84171 l -80.20097,-14.1915 -79.94923,14.14496 c -43.97208,7.77973 -80.60016,14.11834 -81.39573,14.08581 -0.79557,-0.0325 -37.73862,-6.5076 -82.095669,-14.38904 z M 160.7788,263.44535 V 78.676415 l -1.30127,-0.296808 C 158.76184,78.216363 132.41118,73.538901 100.92051,67.985249 69.429839,62.431596 38.470513,56.964752 32.122005,55.836706 25.773498,54.708661 20.373239,53.785714 20.121429,53.785714 c -0.251809,0 -0.457835,83.139186 -0.457835,184.753746 v 184.75375 l 2.168779,0.40754 c 8.457265,1.58922 137.133027,24.39629 137.934337,24.4481 0.96192,0.0622 1.01209,-9.09372 1.01209,-184.7035 z m 89.28429,172.61582 c 37.89059,-6.68422 69.47755,-12.28463 70.19325,-12.44535 l 1.30126,-0.29223 V 238.55465 c 0,-101.62291 -0.14021,-184.768936 -0.31158,-184.768936 -0.46118,0 -134.2155,23.635342 -137.76733,24.34447 l -3.03629,0.6062 V 263.47534 c 0,101.60642 0.16396,184.73895 0.36436,184.73895 0.20039,0 31.36574,-5.46891 69.25633,-12.15312 z M 482.33641,263.47534 V 78.736384 l -3.03629,-0.6062 c -3.55183,-0.709128 -137.30616,-24.34447 -137.76734,-24.34447 -0.29827,0 -0.46525,369.533976 -0.167,369.584306 0.0795,0.0134 31.375,5.58324 69.54551,12.37737 38.17051,6.79414 69.85637,12.37861 70.41302,12.40993 0.96191,0.0541 1.0121,-9.10399 1.0121,-184.68198 z"
   id="path124" /><path
   style="fill:#ffffff;stroke-width:0.578341"
   d="m 454.28687,296.75792 c -2.75164,-1.26356 -3.98473,-2.55331 -5.18302,-5.42123 -0.78838,-1.88687 -0.88812,-12.87015 -0.87686,-96.56178 0.0122,-90.84145 0.0536,-94.5229 1.08929,-96.803324 3.05782,-6.733135 12.97688,-7.303697 16.91288,-0.972859 l 1.35955,2.186757 0.15141,94.471616 c 0.1003,62.5828 -0.0468,95.2076 -0.43572,96.65203 -0.80438,2.98726 -2.64974,5.1663 -5.45364,6.43977 -2.96676,1.34743 -4.64489,1.34943 -7.56389,0.009 z"
   id="path126" /><path
   style="fill:#ffffff;stroke-width:0.578341"
   d="m 454.24141,366.72816 c -2.74984,-1.24892 -4.62123,-3.41674 -5.48635,-6.35543 -0.38985,-1.32424 -0.54874,-7.83004 -0.43351,-17.74953 0.18108,-15.58777 0.18844,-15.66859 1.61782,-17.75317 4.52339,-6.5968 13.45305,-5.74681 16.84542,1.60347 0.95251,2.06382 1.06632,3.93541 1.055,17.35023 -0.0157,18.62554 -0.47231,20.35929 -6.03449,22.91345 -2.919,1.34041 -4.59714,1.33841 -7.56389,-0.009 z"
   id="path128" /><path
   style="fill:#ffffff;stroke-width:0.578341"
   d="m 391.10681,397.25254 c -2.75739,-0.79633 -5.64667,-3.97239 -6.42476,-7.06246 -0.36499,-1.4495 -0.66362,-5.62307 -0.66362,-9.2746 v -6.63914 l -2.16878,-0.70215 c -8.80616,-2.85101 -17.00778,-10.0481 -21.41515,-18.79221 -3.01817,-5.98798 -3.84594,-9.66318 -3.83588,-17.03083 0.008,-5.75428 0.2251,-7.27467 1.61146,-11.27765 4.63586,-13.38562 15.3493,-22.80247 29.00564,-25.49524 8.12597,-1.60229 18.17177,0.11938 25.55296,4.37931 7.16471,4.135 13.97681,12.39616 16.78885,20.36016 1.97284,5.58731 2.4729,15.16256 1.08207,20.71954 -3.05458,12.20432 -12.66836,23.04037 -23.92128,26.96257 l -3.03629,1.05829 v 7.69043 c 0,5.18688 -0.25681,8.30507 -0.78887,9.57847 -1.00578,2.40715 -3.846,4.80212 -6.60294,5.56779 -2.47514,0.68742 -2.66201,0.68589 -5.18341,-0.0423 z m 11.03295,-42.94617 c 3.69113,-1.8059 6.95053,-5.17746 8.66771,-8.96599 1.69343,-3.73612 1.69343,-10.864 0,-14.60011 -1.65524,-3.65187 -5.02349,-7.23218 -8.5346,-9.07191 -2.53063,-1.326 -3.63541,-1.53592 -8.13347,-1.54551 -6.18717,-0.0132 -9.48538,1.298 -13.40201,5.32791 -6.56056,6.75033 -6.44177,18.56054 0.25431,25.2829 2.09804,2.10628 5.28249,4.04745 8.2318,5.01795 2.88941,0.95078 9.53996,0.20664 12.91626,-1.44524 z"
   id="path130" /></svg>
