<?xml version="1.0" encoding="UTF-8" standalone="no"?>
<!-- Uploaded to SVGRepo https://www.svgrepo.com -->

<svg
   version="1.1"
   id="Layer_1"
   x="0px"
   y="0px"
   width="92px"
   height="92px"
   viewBox="0 0 92 92"
   enable-background="new 0 0 92 92"
   xml:space="preserve"
   sodipodi:docname="return.svg"
   inkscape:version="1.2 (dc2aedaf03, 2022-05-15)"
   xmlns:inkscape="http://www.inkscape.org/namespaces/inkscape"
   xmlns:sodipodi="http://sodipodi.sourceforge.net/DTD/sodipodi-0.dtd"
   xmlns="http://www.w3.org/2000/svg"
   xmlns:svg="http://www.w3.org/2000/svg"><defs
   id="defs6" /><sodipodi:namedview
   id="namedview4"
   pagecolor="#ffffff"
   bordercolor="#000000"
   borderopacity="0.25"
   inkscape:showpageshadow="2"
   inkscape:pageopacity="0.0"
   inkscape:pagecheckerboard="0"
   inkscape:deskcolor="#d1d1d1"
   showgrid="false"
   inkscape:zoom="9.4347826"
   inkscape:cx="46"
   inkscape:cy="45.947005"
   inkscape:window-width="1888"
   inkscape:window-height="1057"
   inkscape:window-x="-8"
   inkscape:window-y="-8"
   inkscape:window-maximized="1"
   inkscape:current-layer="Layer_1" />
<path
   id="XMLID_223_"
   d="M82,32.3V72c0,2.2-1.8,4-4,4H19.1c-2.2,0-4-1.8-4-4s1.8-4,4-4H74V36H23.7l5.5,5.6c1.6,1.6,1.6,4.2,0,5.8  c-0.8,0.8-1.8,1.2-2.8,1.2c-1,0-2-0.4-2.8-1.2L11.2,35.1c-0.8-0.8-1.2-1.8-1.2-2.8c0-1.1,0.4-2.1,1.2-2.8l12.4-12.3  c1.6-1.6,4.1-1.6,5.7,0s1.5,4,0,5.6L23.7,28H78C80.2,28,82,30.1,82,32.3z" />
<path
   style="fill:#ffffff;stroke-width:0.105991"
   d="m 18.45516,75.875905 c -1.234481,-0.20504 -2.356405,-1.082238 -2.948269,-2.30516 -0.246848,-0.510042 -0.289123,-0.733793 -0.292853,-1.550008 -0.0037,-0.818686 0.03591,-1.039834 0.279701,-1.559979 0.396651,-0.846281 1.140948,-1.604388 1.981369,-2.018134 l 0.697827,-0.343546 27.957312,-0.02748 27.957311,-0.02748 V 51.987502 35.930876 H 48.841921 23.596285 l 0.310037,0.34447 c 0.17052,0.189458 1.484703,1.536866 2.920407,2.994239 1.435704,1.457374 2.728575,2.840553 2.873048,3.073733 0.976682,1.576372 0.772644,3.557777 -0.507271,4.926111 -1.281784,1.370331 -3.319749,1.654188 -4.789487,0.6671 -0.241737,-0.162352 -3.396908,-3.218404 -7.011492,-6.791225 -6.018061,-5.94853 -6.601361,-6.555741 -6.920688,-7.204387 -0.31618,-0.642252 -0.348719,-0.797569 -0.348719,-1.664494 0,-1.67559 -0.3516306,-1.246985 7.102463,-8.657219 3.597095,-3.575931 6.755309,-6.654743 7.018251,-6.841806 1.757446,-1.250283 4.34702,-0.735527 5.512745,1.095824 0.874405,1.373688 0.842519,2.963049 -0.08702,4.337429 -0.159785,0.23625 -1.578639,1.61943 -3.153012,3.073733 -1.574372,1.454303 -2.866345,2.679691 -2.87105,2.723084 -0.0047,0.04339 12.42814,0.09109 27.628543,0.105991 l 27.637097,0.02709 0.608327,0.298722 c 1.065312,0.523127 1.897314,1.534348 2.244211,2.727629 0.154267,0.530664 0.167722,2.528234 0.142761,21.196813 l -0.02756,20.610937 -0.281979,0.601514 c -0.573287,1.222928 -1.723058,2.089466 -3.060295,2.306424 -0.863745,0.140138 -59.235582,0.133641 -60.080446,-0.0067 z"
   id="path181" /></svg>
